<?xml version="1.0" encoding="UTF-8" standalone="no"?>
<!-- Created with Inkscape (http://www.inkscape.org/) -->

<svg
   width="120"
   height="120"
   viewBox="0 0 120 120"
   version="1.1"
   id="svg1"
   xmlns="http://www.w3.org/2000/svg"
   xmlns:svg="http://www.w3.org/2000/svg">
  <defs
     id="defs1">
    <linearGradient
       id="swatch4">
      <stop
         style="stop-color:#000000;stop-opacity:1;"
         offset="0"
         id="stop4" />
    </linearGradient>
  </defs>
  <rect
     style="fill:#1fc4d7;fill-opacity:0.570978;fill-rule:nonzero"
     id="rect5"
     width="146.47519"
     height="137.85901"
     x="-8.3550911"
     y="-6.2663183" />
  <g
     id="layer1">
    <path
       id="path1"
       style="fill:#388ba0;fill-opacity:1;stroke-width:2.16276"
       d="m 60.376953,20.427475 c -9.39974,5.046172 -18.799479,10.092343 -28.199219,15.138515 0.692058,5.302137 1.384115,10.604274 2.076173,15.906411 -7.166265,3.837352 -14.333094,7.673653 -21.498048,11.513451 1.411272,11.250318 2.8857,22.493626 4.421875,33.727576 10.006862,1.988576 20.005679,4.065242 30.080078,5.679432 2.809482,-1.35996 2.115007,-7.320876 5.782798,-6.721577 6.601698,0 13.203395,0 19.805093,0 1.405378,-1.891831 6.878821,1.147974 9.734614,1.016709 4.492562,0.758712 8.994872,1.960675 13.510325,2.289172 3.400504,-4.981721 5.533758,-10.779837 8.334428,-16.133545 2.13684,-4.527215 4.41115,-8.999398 6.33274,-13.622354 -6.86686,-8.420109 -14.271465,-16.39208 -21.431638,-24.565184 -3.089844,1.657956 -6.179688,3.315913 -9.269532,4.973869 0.729818,-1.510028 1.459635,-3.020057 2.189453,-4.530085 -7.289713,-8.22413 -14.579427,-16.44826 -21.86914,-24.67239 z" />
    <ellipse
       style="fill:#ebea79;fill-opacity:0.756863;fill-rule:nonzero"
       id="path4"
       cx="96.605743"
       cy="17.362925"
       rx="9.399478"
       ry="7.9634466" />
    <rect
       style="fill:#1fd757;fill-opacity:1;fill-rule:nonzero"
       id="rect4"
       width="128.45953"
       height="29.765013"
       x="-0.52219319"
       y="92.4282" />
    <path
       style="fill:#cb601f;fill-opacity:0.570978;fill-rule:nonzero;stroke:#000000;stroke-width:0.6;stroke-dasharray:0.6, 0.6;stroke-dashoffset:0;stroke-opacity:0.263485"
       d="M 9.4393907,91.979179 9.6589114,81.003144 9.21987,75.515126 5.2684972,70.68567 3.2928107,62.782924 l 1.9756865,-4.609935 6.5856218,-4.609935 8.780828,-1.756165 3.512332,1.975686 4.390414,6.366101 -0.439042,7.463704 -3.512331,3.951373 -4.609935,1.975686 -5.268497,1.536645 0.219521,10.976036 0.439041,5.707539 z"
       id="path8" />
    <path
       style="fill:#cb601f;fill-opacity:0.570978;fill-rule:nonzero;stroke:#000000;stroke-width:0.6;stroke-dasharray:0.6, 0.6;stroke-dashoffset:0;stroke-opacity:0.263485"
       d="m 18.000699,92.637743 c -7.255537,-5.312831 20.441114,-2.416732 22.171592,-0.439043 20.425757,2.778211 17.296483,10.9922 15.585971,18.87878 -6.545542,4.86953 -11.802053,11.0281 -29.635297,4.60993 C 4.5927405,108.90678 19.174929,97.330585 18.000699,92.637743 Z"
       id="path9" />
  </g>
  <rect
     style="fill:#f2fcfd;fill-opacity:0.570978;fill-rule:nonzero"
     id="rect6"
     width="13.054831"
     height="10.182768"
     x="75.456917"
     y="60.052219" />
  <rect
     style="fill:#f2fcfd;fill-opacity:0.570978;fill-rule:nonzero"
     id="rect7"
     width="13.054831"
     height="10.182768"
     x="31.853785"
     y="59.791122" />
  <rect
     style="fill:#cb601f;fill-opacity:0.570978;fill-rule:nonzero"
     id="rect8"
     width="10.443864"
     height="20.365536"
     x="53.7859"
     y="72.06266" />
</svg>
